<?xml version="1.0" encoding="UTF-8"?>
<!DOCTYPE svg PUBLIC "-//W3C//DTD SVG 1.1//EN" "http://www.w3.org/Graphics/SVG/1.1/DTD/svg11.dtd">
<svg xmlns="http://www.w3.org/2000/svg" version="1.1" width="572px" height="698px" style="shape-rendering:geometricPrecision; text-rendering:geometricPrecision; image-rendering:optimizeQuality; fill-rule:evenodd; clip-rule:evenodd" xmlns:xlink="http://www.w3.org/1999/xlink">
<g><path style="opacity:0.971" fill="#000000" d="M 348.5,-0.5 C 353.167,-0.5 357.833,-0.5 362.5,-0.5C 371.146,2.29058 377.979,7.62391 383,15.5C 398.667,41.1667 414.333,66.8333 430,92.5C 440.147,115.285 450.481,137.952 461,160.5C 463.713,164.092 466.547,167.592 469.5,171C 485.916,179.664 495.582,193.164 498.5,211.5C 498.37,213.375 498.037,215.208 497.5,217C 503.085,229.923 506.252,243.423 507,257.5C 512.247,308.476 517.247,359.476 522,410.5C 525.643,432.716 530.31,454.716 536,476.5C 538.13,489.231 537.797,501.897 535,514.5C 533.287,518.873 530.787,522.707 527.5,526C 527.833,526.333 528.167,526.667 528.5,527C 525.63,529.079 523.296,531.579 521.5,534.5C 509.67,542.838 498.003,551.338 486.5,560C 476.356,569.567 466.022,578.901 455.5,588C 430.725,616.229 405.725,644.229 380.5,672C 374.5,674.917 368.167,676.417 361.5,676.5C 339.255,673.972 316.922,672.806 294.5,673C 281.281,671.575 268.281,669.075 255.5,665.5C 244.231,667.067 232.898,668.233 221.5,669C 182.64,669.94 143.806,669.44 105,667.5C 93.1372,668.113 81.3039,668.78 69.5,669.5C 58.6248,669.225 48.2914,666.725 38.5,662C 32.1362,656.975 28.3029,650.475 27,642.5C 27.6786,619.502 27.3452,596.502 26,573.5C 21.916,515.992 17.7493,458.492 13.5,401C 15.7743,359.12 18.6076,317.286 22,275.5C 24.3788,270.495 27.3788,270.161 31,274.5C 36.9726,285.375 40.6393,297.042 42,309.5C 43.1461,317.815 44.1461,326.149 45,334.5C 46.1175,358.494 47.1175,382.494 48,406.5C 52.1643,441.814 56.1643,477.148 60,512.5C 60.2314,466.328 59.7314,420.162 58.5,374C 58.6667,360.5 58.8333,347 59,333.5C 59.2678,320.421 62.9345,308.421 70,297.5C 84.9286,283.548 100.429,282.881 116.5,295.5C 125.999,304.833 131.499,316.166 133,329.5C 133.667,326.5 133.667,323.5 133,320.5C 130.182,306.928 128.016,293.262 126.5,279.5C 126.8,276.421 128.133,273.921 130.5,272C 108.814,271.833 87.147,271.166 65.5,270C 57.4923,268.749 49.8256,266.415 42.5,263C 39.872,260.939 39.2054,258.439 40.5,255.5C 44.0667,252.921 48.0667,251.421 52.5,251C 79.3821,246.242 106.382,242.242 133.5,239C 141.833,238.333 150.167,238.333 158.5,239C 168.55,240.743 178.55,242.743 188.5,245C 210.5,245.667 232.5,245.667 254.5,245C 248.289,235.414 242.456,225.581 237,215.5C 218.062,177.957 199.395,140.29 181,102.5C 179.333,100.167 177.667,97.8333 176,95.5C 165.811,113.216 154.144,129.883 141,145.5C 109.731,181.771 75.564,214.938 38.5,245C 33.1445,249.349 27.1445,252.016 20.5,253C 18.5218,250.503 18.0218,247.669 19,244.5C 22.8294,236.837 27.1627,229.504 32,222.5C 58.9545,188.543 86.2879,154.877 114,121.5C 129.647,100.827 143.314,78.8268 155,55.5C 163.202,46.0527 173.035,43.7194 184.5,48.5C 191.722,45.3892 199.056,42.5559 206.5,40C 233.089,32.4701 259.423,24.1368 285.5,15C 306.513,9.32967 327.513,4.163 348.5,-0.5 Z M 345.5,37.5 C 348.119,37.2317 350.619,37.565 353,38.5C 364.497,58.8315 376.497,78.8315 389,98.5C 400.554,120.502 410.554,143.169 419,166.5C 427.219,187.377 441.053,203.21 460.5,214C 463.833,217 467.167,220 470.5,223C 475.407,224.572 480.407,225.738 485.5,226.5C 482.505,253.241 480.505,280.074 479.5,307C 482.342,342.107 484.175,377.273 485,412.5C 489.704,442.982 495.204,473.315 501.5,503.5C 501.43,504.772 501.097,505.938 500.5,507C 490.853,511.488 481.853,516.988 473.5,523.5C 473.167,523.333 472.833,523.167 472.5,523C 476.894,515.631 478.56,507.631 477.5,499C 473.443,451.582 470.943,404.082 470,356.5C 464.618,320.677 460.951,284.677 459,248.5C 457.46,238.213 454.127,228.547 449,219.5C 442.101,211.422 433.601,208.589 423.5,211C 394.141,223.512 365.141,236.845 336.5,251C 332.89,252.944 329.557,255.277 326.5,258C 317.46,256.324 308.46,254.157 299.5,251.5C 295.78,239.391 290.947,227.724 285,216.5C 260.726,173.623 237.726,129.957 216,85.5C 211.893,78.3958 207.393,71.5625 202.5,65C 215.431,63.139 228.431,61.4724 241.5,60C 276.155,51.8319 310.822,44.3319 345.5,37.5 Z M 468.5,527.5 C 435.185,556.655 407.519,590.488 385.5,629C 385.833,629.333 386.167,629.667 386.5,630C 383.585,633.828 380.919,637.828 378.5,642C 378.833,642.333 379.167,642.667 379.5,643C 367.598,639.705 355.598,636.372 343.5,633C 345.54,611.844 348.04,590.677 351,569.5C 352.277,540.012 353.111,510.512 353.5,481C 351.251,424.516 349.417,368.016 348,311.5C 347.398,297.323 344.565,283.656 339.5,270.5C 367.922,265.144 395.589,257.144 422.5,246.5C 423.281,247.729 423.781,249.062 424,250.5C 424.393,287.336 427.06,324.003 432,360.5C 431.955,404.232 433.622,447.899 437,491.5C 438.41,499.885 440.077,508.218 442,516.5C 443.934,525.104 449.268,529.77 458,530.5C 461.503,529.565 465.003,528.565 468.5,527.5 Z M 134.5,272.5 C 139.65,271.349 144.984,271.183 150.5,272C 162.45,275.206 174.45,278.206 186.5,281C 215.225,281.735 243.892,283.402 272.5,286C 283.171,287.793 293.671,290.293 304,293.5C 305.882,294.093 306.882,295.427 307,297.5C 307.799,303.485 308.465,309.485 309,315.5C 309.333,344.833 309.667,374.167 310,403.5C 311.444,428.989 312.61,454.489 313.5,480C 312.379,510.501 311.213,541.001 310,571.5C 308.407,581.654 306.907,591.821 305.5,602C 305.927,612.063 307.594,621.896 310.5,631.5C 305.533,632.662 300.533,632.829 295.5,632C 284.775,630.319 274.108,628.319 263.5,626C 260.167,625.833 256.833,625.667 253.5,625.5C 230.894,627.906 208.228,629.239 185.5,629.5C 184.004,622.847 182.504,616.181 181,609.5C 180.667,591.833 180.333,574.167 180,556.5C 179.333,553.167 178.667,549.833 178,546.5C 177.589,527.43 176.255,508.43 174,489.5C 170.381,476.978 167.381,464.312 165,451.5C 165.471,427.001 166.305,402.501 167.5,378C 168.01,345.202 160.51,314.369 145,285.5C 142.015,280.689 138.515,276.356 134.5,272.5 Z M 102.5,506.5 C 109.678,524.211 115.178,542.544 119,561.5C 119.688,577.294 118.521,592.96 115.5,608.5C 115.912,615.066 117.245,621.399 119.5,627.5C 113.824,627.666 108.157,627.499 102.5,627C 105.738,626.768 108.238,625.268 110,622.5C 111.842,619.246 112.675,615.746 112.5,612C 111.441,607.86 111.441,603.86 112.5,600C 110.919,597.002 109.753,593.835 109,590.5C 107.259,577.795 105.259,565.128 103,552.5C 102.5,537.17 102.333,521.837 102.5,506.5 Z M 65.5,583.5 C 67.5324,593.095 70.6991,602.429 75,611.5C 79.7229,618.888 86.2229,624.055 94.5,627C 85.1866,627.921 75.8533,628.421 66.5,628.5C 66.9823,625.698 67.3157,622.865 67.5,620C 66.6504,607.841 65.9837,595.674 65.5,583.5 Z"/></g>
</svg>
