<?xml version="1.0" encoding="UTF-8"?>
<!DOCTYPE svg PUBLIC "-//W3C//DTD SVG 1.1//EN" "http://www.w3.org/Graphics/SVG/1.1/DTD/svg11.dtd">
<svg xmlns="http://www.w3.org/2000/svg" version="1.1" width="3420px" height="7204px" style="shape-rendering:geometricPrecision; text-rendering:geometricPrecision; image-rendering:optimizeQuality; fill-rule:evenodd; clip-rule:evenodd" xmlns:xlink="http://www.w3.org/1999/xlink">
<g><path style="opacity:0.991" fill="#000000" d="M 923.5,100.5 C 974.477,101.997 1024.81,108.497 1074.5,120C 1120.58,133.365 1161.25,156.032 1196.5,188C 1219.89,210.049 1241.06,233.883 1260,259.5C 1281.61,289.449 1303.61,319.115 1326,348.5C 1358.51,393.495 1387.51,440.829 1413,490.5C 1438.35,541.198 1463.68,591.864 1489,642.5C 1518.45,701.514 1539.12,763.514 1551,828.5C 1572.21,934.657 1587.55,1041.66 1597,1149.5C 1603.72,1241.88 1611.05,1334.22 1619,1426.5C 1622.24,1465.83 1622.24,1505.16 1619,1544.5C 1607.56,1680.04 1589.89,1814.7 1566,1948.5C 1601.95,1884.23 1642.62,1823.23 1688,1765.5C 1737.2,1702.63 1787.53,1640.63 1839,1579.5C 1892.71,1518.39 1945.71,1456.73 1998,1394.5C 2046.23,1340.27 2097.73,1289.43 2152.5,1242C 2202.8,1198.86 2253.46,1156.19 2304.5,1114C 2368.39,1064.2 2437.06,1021.54 2510.5,986C 2563.71,963.376 2618.71,946.376 2675.5,935C 2704.89,929.255 2734.22,923.255 2763.5,917C 2795.51,913.083 2827.17,915.083 2858.5,923C 2904.23,934.7 2947.9,951.7 2989.5,974C 3017.49,987.988 3044.16,1003.99 3069.5,1022C 3107.09,1054.29 3134.59,1093.79 3152,1140.5C 3169.13,1183.23 3183.46,1226.89 3195,1271.5C 3202.37,1306.5 3204.7,1341.84 3202,1377.5C 3199.1,1424.46 3192.1,1470.79 3181,1516.5C 3162.36,1591.72 3139.69,1665.72 3113,1738.5C 3082.79,1815.92 3047.46,1890.92 3007,1963.5C 2984.48,1999.87 2960.48,2035.21 2935,2069.5C 2871.75,2166.32 2810.75,2264.66 2752,2364.5C 2739.39,2384.77 2726.39,2404.77 2713,2424.5C 2685.05,2462.12 2656.72,2499.45 2628,2536.5C 2582.94,2599.22 2538.28,2662.22 2494,2725.5C 2425.83,2830.51 2357.16,2935.18 2288,3039.5C 2220.41,3140.35 2152.08,3240.69 2083,3340.5C 2071.16,3359.5 2059.83,3378.84 2049,3398.5C 2028.68,3439.14 2008.35,3479.8 1988,3520.5C 1970.65,3553.49 1951.32,3585.15 1930,3615.5C 1900.24,3654.68 1870.24,3693.68 1840,3732.5C 1805.92,3782.32 1773.58,3833.32 1743,3885.5C 1690.18,3977.16 1635.84,4067.83 1580,4157.5C 1547.32,4215.86 1516.99,4275.52 1489,4336.5C 1466.7,4381.79 1442.36,4425.79 1416,4468.5C 1390.5,4508.67 1365,4548.83 1339.5,4589C 1382.75,4649.33 1427.59,4708.5 1474,4766.5C 1505.22,4807.05 1534.89,4848.72 1563,4891.5C 1593.75,4942.02 1625.75,4991.68 1659,5040.5C 1678.28,5066.12 1697.95,5091.45 1718,5116.5C 1753.96,5159.46 1790.29,5202.13 1827,5244.5C 1852.42,5271.6 1879.92,5296.1 1909.5,5318C 1931.92,5332.59 1956.25,5342.93 1982.5,5349C 2004.28,5356.24 2026.62,5359.24 2049.5,5358C 2075.32,5348.16 2097.82,5352.99 2117,5372.5C 2133.67,5395.83 2133.67,5419.17 2117,5442.5C 2106.1,5453.7 2092.94,5460.87 2077.5,5464C 2048.78,5468.89 2020.11,5468.55 1991.5,5463C 1949.24,5454.91 1908.91,5441.25 1870.5,5422C 1838.55,5402.06 1808.88,5379.06 1781.5,5353C 1764.27,5336.44 1747.77,5319.27 1732,5301.5C 1686.2,5248.71 1641.54,5195.04 1598,5140.5C 1580.95,5117.78 1564.28,5094.78 1548,5071.5C 1512.79,5014.96 1476.79,4958.96 1440,4903.5C 1423,4880.5 1406,4857.5 1389,4834.5C 1352.23,4788.4 1316.23,4741.74 1281,4694.5C 1228.47,4795.89 1179.47,4898.89 1134,5003.5C 1117.7,5037.43 1100.37,5070.76 1082,5103.5C 1054.06,5149.1 1025.73,5194.43 997,5239.5C 977.071,5271.35 959.737,5304.69 945,5339.5C 925.113,5393.82 902.113,5446.82 876,5498.5C 826.075,5595.02 773.741,5690.02 719,5783.5C 698.589,5823.99 677.922,5864.32 657,5904.5C 643.834,5926.84 630.168,5948.84 616,5970.5C 602.422,5988.66 589.089,6006.99 576,6025.5C 568.744,6039.68 561.744,6054.01 555,6068.5C 538.152,6091.6 515.985,6098.76 488.5,6090C 460.354,6075.87 449.854,6053.37 457,6022.5C 472.674,5983.55 494.008,5948.22 521,5916.5C 535.417,5895.34 549.083,5873.67 562,5851.5C 580.651,5814.86 599.318,5778.2 618,5741.5C 661.869,5665.93 704.536,5589.6 746,5512.5C 766.449,5473.94 786.116,5434.94 805,5395.5C 818.61,5362.61 831.943,5329.61 845,5296.5C 862.135,5256.56 882.135,5218.23 905,5181.5C 939.921,5127.33 973.588,5072.33 1006,5016.5C 1015,4998.5 1024,4980.5 1033,4962.5C 1087.33,4837.84 1146.49,4715.51 1210.5,4595.5C 1146.86,4502.7 1083.03,4410.03 1019,4317.5C 967.301,4242.45 917.968,4165.78 871,4087.5C 825.838,4009.17 780.171,3931.17 734,3853.5C 696.497,3795.16 658.497,3737.16 620,3679.5C 579.635,3616.79 542.302,3552.13 508,3485.5C 460.271,3389.71 412.271,3294.04 364,3198.5C 300.109,3068.84 250.443,2933.84 215,2793.5C 210.23,2772.98 206.23,2752.32 203,2731.5C 196.818,2683.38 189.818,2635.38 182,2587.5C 167.964,2522.69 153.298,2458.02 138,2393.5C 124.367,2329.74 114.367,2265.4 108,2200.5C 98.6064,2099.5 89.2731,1998.5 80,1897.5C 76.2469,1830.1 77.2469,1762.77 83,1695.5C 90.7271,1589.62 103.06,1484.29 120,1379.5C 138.655,1257.56 160.655,1136.23 186,1015.5C 210.583,911.02 249.583,812.354 303,719.5C 324.847,688.643 345.514,656.977 365,624.5C 381.172,588.651 396.172,552.318 410,515.5C 422.882,485.376 439.549,457.709 460,432.5C 473,418.167 486,403.833 499,389.5C 526.524,355.796 554.524,322.463 583,289.5C 619.534,248.949 659.701,212.782 703.5,181C 731.655,163.423 761.322,148.756 792.5,137C 827.248,123.062 862.915,112.062 899.5,104C 907.626,102.673 915.626,101.506 923.5,100.5 Z M 926.5,209.5 C 963.861,210.966 1000.86,215.466 1037.5,223C 1059.86,228.184 1080.53,237.184 1099.5,250C 1118.91,264.072 1136.41,280.239 1152,298.5C 1186.82,344.143 1221.15,390.143 1255,436.5C 1279.27,472.689 1301.27,510.356 1321,549.5C 1346.4,601.29 1372.06,652.957 1398,704.5C 1417.73,746.01 1432.06,789.344 1441,834.5C 1462.73,939.602 1478.4,1045.6 1488,1152.5C 1495.19,1249.21 1502.86,1345.87 1511,1442.5C 1513.34,1495.32 1511.34,1547.98 1505,1600.5C 1492.67,1725.47 1474,1849.47 1449,1972.5C 1440.02,2010.43 1431.35,2048.43 1423,2086.5C 1410.51,2150.94 1397.51,2215.28 1384,2279.5C 1381.67,2288.83 1379.33,2298.17 1377,2307.5C 1361.62,2339.92 1347.62,2372.92 1335,2406.5C 1321.32,2447.2 1308.66,2488.2 1297,2529.5C 1284.88,2565.72 1272.22,2601.72 1259,2637.5C 1254.29,2662.73 1262.46,2682.57 1283.5,2697C 1308.62,2709.65 1331.45,2706.48 1352,2687.5C 1354,2684.83 1356,2682.17 1358,2679.5C 1405.92,2567.07 1447.92,2452.4 1484,2335.5C 1508.49,2285.86 1533.49,2236.52 1559,2187.5C 1594.92,2122.66 1630.59,2057.66 1666,1992.5C 1701.64,1930.21 1741.98,1871.21 1787,1815.5C 1813.67,1782.17 1840.33,1748.83 1867,1715.5C 1929.96,1640.87 1993.29,1566.54 2057,1492.5C 2102.37,1439.13 2151.2,1388.96 2203.5,1342C 2264.91,1288.48 2327.24,1236.14 2390.5,1185C 2450.42,1140.02 2515.09,1102.69 2584.5,1073C 2608.21,1064.74 2632.21,1057.41 2656.5,1051C 2702.06,1040.29 2747.89,1031.12 2794,1023.5C 2813.91,1024.68 2833.41,1028.18 2852.5,1034C 2869.81,1039.55 2886.81,1045.88 2903.5,1053C 2934.82,1067.69 2965.15,1084.02 2994.5,1102C 3020.22,1122.08 3038.72,1147.58 3050,1178.5C 3065.6,1216.95 3078.6,1256.29 3089,1296.5C 3093.37,1317.28 3095.03,1338.28 3094,1359.5C 3091.76,1408.61 3084.43,1456.94 3072,1504.5C 3052.14,1579.74 3028.48,1653.74 3001,1726.5C 2975.73,1786.98 2947.4,1845.98 2916,1903.5C 2895.23,1937.59 2872.9,1970.59 2849,2002.5C 2783.08,2103.32 2719.41,2205.66 2658,2309.5C 2647.25,2326.67 2636.25,2343.67 2625,2360.5C 2498.15,2525.04 2379.48,2695.37 2269,2871.5C 2192.9,2986.93 2115.23,3101.26 2036,3214.5C 2007.25,3256.32 1980.25,3299.32 1955,3343.5C 1934.47,3383.22 1914.47,3423.22 1895,3463.5C 1877.42,3498.34 1857.09,3531.34 1834,3562.5C 1795.08,3610.42 1758.08,3659.75 1723,3710.5C 1671.91,3791.67 1622.57,3874.01 1575,3957.5C 1546.33,4004.17 1517.67,4050.83 1489,4097.5C 1458.14,4151.07 1429.81,4206.07 1404,4262.5C 1379.46,4314.59 1352.13,4364.92 1322,4413.5C 1305.08,4439.66 1288.42,4466 1272,4492.5C 1187.43,4371.03 1104.1,4248.7 1022,4125.5C 1006.33,4100.17 990.667,4074.83 975,4049.5C 927.505,3967.17 879.505,3885.17 831,3803.5C 789.747,3738.65 747.747,3674.32 705,3610.5C 667.2,3550.97 632.2,3489.63 600,3426.5C 550.333,3327.17 500.667,3227.83 451,3128.5C 391.368,3004.28 346.035,2874.94 315,2740.5C 306.427,2682.82 297.76,2625.15 289,2567.5C 273.964,2498.02 258.298,2428.69 242,2359.5C 229.122,2296.02 219.789,2232.02 214,2167.5C 206.421,2081.79 198.421,1996.13 190,1910.5C 185.409,1849.17 185.409,1787.84 190,1726.5C 196.302,1634.48 205.969,1542.81 219,1451.5C 239.214,1313.76 263.547,1176.76 292,1040.5C 307.646,971.894 330.646,905.894 361,842.5C 370.078,824.011 379.411,805.677 389,787.5C 405.504,761.822 422.504,736.489 440,711.5C 455.675,687.154 469.008,661.487 480,634.5C 490,609.167 500,583.833 510,558.5C 518.853,537.348 530.52,518.015 545,500.5C 582.498,459.678 618.498,417.678 653,374.5C 681.933,341.899 713.099,311.732 746.5,284C 776.105,262.362 808.438,245.695 843.5,234C 870.616,223.456 898.283,215.289 926.5,209.5 Z"/></g>
<g><path style="opacity:0.991" fill="#000000" d="M 3156.5,3359.5 C 3189.1,3357.62 3209.93,3372.28 3219,3403.5C 3223.45,3512.17 3223.12,3620.84 3218,3729.5C 3216.17,3766.93 3213.17,3804.26 3209,3841.5C 3203.96,3874.34 3197.96,3907.01 3191,3939.5C 3189.49,3949.45 3188.49,3959.45 3188,3969.5C 3188.03,4016.83 3188.53,4064.17 3189.5,4111.5C 3189.85,4177.64 3187.01,4243.64 3181,4309.5C 3175.61,4352.2 3169.95,4394.87 3164,4437.5C 3159.01,4478.01 3156.51,4518.68 3156.5,4559.5C 3157.44,4608.67 3158.44,4657.84 3159.5,4707C 3158.94,4755.27 3156.44,4803.43 3152,4851.5C 3143.35,4930.71 3136.01,5010.05 3130,5089.5C 3128.74,5160.49 3128.08,5231.49 3128,5302.5C 3126.26,5361.73 3121.59,5420.73 3114,5479.5C 3093.76,5631.05 3074.43,5782.72 3056,5934.5C 3054,5952.8 3052.34,5971.14 3051,5989.5C 3048.57,6041.16 3046.23,6092.83 3044,6144.5C 3040.37,6206.96 3030.03,6268.3 3013,6328.5C 2990.61,6405 2966.61,6481 2941,6556.5C 2920.14,6619.54 2891.81,6678.88 2856,6734.5C 2834.72,6766.77 2813.06,6798.77 2791,6830.5C 2772.25,6861.67 2753.25,6892.67 2734,6923.5C 2717.09,6948.42 2697.25,6970.92 2674.5,6991C 2639.11,7020.06 2601.77,7046.39 2562.5,7070C 2530.97,7090.15 2497.97,7107.81 2463.5,7123C 2404.43,7145.84 2343.43,7153.84 2280.5,7147C 2252.21,7142.05 2223.88,7137.39 2195.5,7133C 2139.88,7123.52 2086.88,7106.18 2036.5,7081C 1988.04,7051.87 1942.37,7018.87 1899.5,6982C 1835.92,6925.08 1770.59,6870.41 1703.5,6818C 1670.44,6796.47 1638.44,6773.47 1607.5,6749C 1600.83,6743 1594.17,6737 1587.5,6731C 1530.24,6674.08 1474.08,6616.25 1419,6557.5C 1386.54,6521.38 1355.21,6484.38 1325,6446.5C 1310.89,6428.39 1297.56,6409.72 1285,6390.5C 1267.08,6360.33 1249.41,6330 1232,6299.5C 1210.89,6269.63 1192.56,6237.97 1177,6204.5C 1162.84,6173.85 1149.51,6142.85 1137,6111.5C 1131.13,6085.08 1139.3,6064.25 1161.5,6049C 1184.73,6037.3 1206.39,6039.63 1226.5,6056C 1231.53,6061.22 1235.69,6067.05 1239,6073.5C 1255.02,6113.54 1272.69,6152.88 1292,6191.5C 1302.94,6209.44 1314.27,6227.1 1326,6244.5C 1343.41,6275 1361.08,6305.33 1379,6335.5C 1393.56,6356.73 1408.9,6377.4 1425,6397.5C 1452.19,6429.87 1479.86,6461.87 1508,6493.5C 1559.44,6547.61 1611.61,6601.11 1664.5,6654C 1679.3,6667.8 1694.96,6680.47 1711.5,6692C 1730.17,6704.67 1748.83,6717.33 1767.5,6730C 1838.53,6785.05 1907.53,6842.71 1974.5,6903C 2011.21,6934.19 2050.21,6962.19 2091.5,6987C 2130.96,7005.82 2172.29,7018.82 2215.5,7026C 2249.63,7031.55 2283.79,7036.72 2318,7041.5C 2357.8,7041.34 2395.96,7033.51 2432.5,7018C 2489.36,6989.08 2543.03,6955.41 2593.5,6917C 2618.37,6896.8 2638.87,6872.97 2655,6845.5C 2669,6822.17 2683,6798.83 2697,6775.5C 2722.91,6737.34 2748.58,6699.01 2774,6660.5C 2800.45,6616.59 2821.78,6570.26 2838,6521.5C 2866.63,6437.95 2892.63,6353.62 2916,6268.5C 2926.13,6227.41 2932.46,6185.74 2935,6143.5C 2937.4,6091.84 2939.74,6040.17 2942,5988.5C 2943.52,5965.79 2945.52,5943.12 2948,5920.5C 2966.93,5766.07 2986.6,5611.74 3007,5457.5C 3013.26,5408.01 3017.26,5358.35 3019,5308.5C 3019.08,5235.82 3019.75,5163.16 3021,5090.5C 3022.24,5066.8 3023.91,5043.14 3026,5019.5C 3032.47,4954.85 3038.8,4890.18 3045,4825.5C 3048.41,4785.74 3050.24,4745.91 3050.5,4706C 3049.59,4656.66 3048.59,4607.33 3047.5,4558C 3047.73,4516.03 3050.23,4474.2 3055,4432.5C 3061.09,4386.85 3067.09,4341.18 3073,4295.5C 3078.35,4231.95 3081.18,4168.28 3081.5,4104.5C 3080.3,4068.67 3079.3,4032.84 3078.5,3997C 3078.25,3971.01 3080.08,3945.18 3084,3919.5C 3087.86,3897.74 3092.19,3876.07 3097,3854.5C 3103.98,3806.41 3108.31,3758.08 3110,3709.5C 3111.95,3654.18 3113.12,3598.85 3113.5,3543.5C 3112.7,3496.83 3112.2,3450.17 3112,3403.5C 3118.09,3379.91 3132.93,3365.24 3156.5,3359.5 Z"/></g>
</svg>
